#!OML:ASF F:\VICON\USERDATA\INSTALL\rory3\rory3.ASF
:FULLY-SPECIFIED
:DEGREES
27
root 12.6941 17.9421 12.8842 -165.505 -36.0309 176.411
lowerback -6.40768 -0.869246 -1.34298
upperback -1.88426 -1.13783 -0.490283
thorax 1.66562 -0.602318 0.160794
lowerneck -17.2574 0.0166323 0.240815
upperneck 24.8386 -0.857656 0.691722
head 10.8705 -0.514718 0.0414548
rclavicle -1.91827e-014 -7.35503e-015
rhumerus -31.2858 14.839 -95.633
rradius 26.6029
rwrist 5.48228
rhand -23.4884 12.3507
rfingers 7.12502
rthumb 2.97145 -17.6083
lclavicle -1.91827e-014 -7.35503e-015
lhumerus -37.6639 -11.8032 87.1505
lradius 32.9664
lwrist 7.86356
lhand -12.7743 27.2631
lfingers 7.12502
lthumb 13.3107 56.818
rfemur -14.8319 -3.60663 20.1915
rtibia 27.3864
rfoot -23.3861 8.4571
rtoes 5.57424
lfemur -46.0045 10.0546 -24.7875
ltibia 53.4191
lfoot -12.9654 -3.12419
ltoes -14.8769
28
root 12.6715 17.9342 12.8372 -165.444 -35.9404 176.33
lowerback -6.41104 -0.805914 -1.32505
upperback -1.93082 -1.05671 -0.540874
thorax 1.61724 -0.562596 0.105476
lowerneck -17.1015 -0.00534496 0.187254
upperneck 24.9193 -0.88364 0.675854
head 10.8702 -0.539346 0.0403355
rclavicle 5.35103e-014 5.96354e-015
rhumerus -31.2869 14.4752 -95.5257
rradius 26.5411
rwrist 5.8143
rhand -23.5036 12.4942
rfingers 7.12502
rthumb 2.95675 -17.465
lclavicle 5.35103e-014 5.96354e-015
lhumerus -37.8078 -11.9744 87.2453
lradius 32.9819
lwrist 7.8311
lhand -12.8338 27.3193
lfingers 7.12502
lthumb 13.2534 56.8779
rfemur -14.4873 -3.42852 20.1267
rtibia 27.0822
rfoot -23.607 8.19939
rtoes 4.52629
lfemur -46.183 10.0649 -25.143
ltibia 52.4263
lfoot -13.206 -3.07157
ltoes -15.3124
29
root 12.6454 17.9287 12.7873 -165.462 -35.8779 176.275
lowerback -6.39664 -0.826267 -1.3776
upperback -1.88325 -1.07819 -0.534657
thorax 1.65947 -0.572817 0.139416
lowerneck -17.2396 0.0483929 0.254798
upperneck 25.0804 -0.807995 0.571716
head 10.9562 -0.512967 0.000900721
rclavicle -4.79816e-014 -2.78299e-015
rhumerus -31.2651 14.8322 -95.6198
rradius 26.6086
rwrist 5.53535
rhand -23.6177 12.6708
rfingers 7.12502
rthumb 2.84657 -17.2899
lclavicle -4.79816e-014 -2.78299e-015
lhumerus -37.818 -11.891 87.2286
lradius 33.0022
lwrist 7.77485
lhand -12.6854 27.3452
lfingers 7.12502
lthumb 13.3964 56.8945
rfemur -14.0778 -3.3109 20.0922
rtibia 26.8172
rfoot -23.6317 8.12239
rtoes 4.65376
lfemur -46.3004 10.0777 -25.4582
ltibia 51.349
lfoot -13.292 -3.09814
ltoes -15.48
30
root 12.6191 17.9275 12.7354 -165.518 -35.7989 176.351
lowerback -6.41808 -0.817661 -1.36179
upperback -1.85528 -1.06637 -0.487736
thorax 1.70067 -0.566484 0.179055
lowerneck -17.2924 0.0603284 0.222509
upperneck 25.1491 -0.780248 0.551438
head 10.992 -0.50685 0.00248134
rclavicle -4.24902e-015 -3.77691e-015
rhumerus -31.2892 15.27 -95.7392
rradius 26.7309
rwrist 5.05147
rhand -23.7897 12.533
rfingers 7.12502
rthumb 2.68049 -17.4299
lclavicle -4.24902e-015 -3.77691e-015
lhumerus -37.8137 -11.7928 87.2081
lradius 33.0352
lwrist 7.79947
lhand -12.4303 27.3208
lfingers 7.12502
lthumb 13.6423 56.8537
rfemur -13.7085 -3.35198 20.177
rtibia 26.5382
rfoot -23.5093 8.33119
rtoes 5.51612
lfemur -46.4603 10.0712 -25.6313
ltibia 50.2141
lfoot -13.214 -3.12621
ltoes -15.6744
31
root 12.5923 17.9244 12.6846 -165.511 -35.7363 176.351
lowerback -6.46701 -0.800272 -1.33109
upperback -1.86918 -1.04544 -0.488432
thorax 1.71276 -0.556429 0.162115
lowerneck -17.2088 0.0877599 0.159445
upperneck 25.2374 -0.732259 0.54123
head 11.0086 -0.496893 0.0155547
rclavicle 4.13969e-014 2.22639e-014
rhumerus -31.3853 15.3519 -95.7862
rradius 26.8589
rwrist 4.92273
rhand -23.8696 12.3153
rfingers 7.12502
rthumb 2.60328 -17.6485
lclavicle 4.13969e-014 2.22639e-014
lhumerus -37.8402 -11.7075 87.1904
lradius 33.0308
lwrist 7.79771
lhand -12.2344 27.4028
lfingers 7.12502
lthumb 13.8311 56.9229
rfemur -13.3709 -3.48078 20.2063
rtibia 26.1845
rfoot -23.4411 8.37814
rtoes 5.35651
lfemur -46.5947 9.94995 -25.829
ltibia 49.0188
lfoot -13.1343 -3.15318
ltoes -15.4351
32
root 12.5624 17.9237 12.6312 -165.532 -35.6465 176.399
lowerback -6.55747 -0.770161 -1.23836
upperback -1.87254 -1.01057 -0.490952
thorax 1.75761 -0.539425 0.108886
lowerneck -17.1188 0.109068 0.130642
upperneck 25.2959 -0.691671 0.498972
head 11.0126 -0.490338 0.0103648
rclavicle -3.10725e-014 1.86858e-014
rhumerus -31.3948 15.2392 -95.755
rradius 26.888
rwrist 5.09103
rhand -23.7187 12.338
rfingers 7.12502
rthumb 2.74901 -17.624
lclavicle -3.10725e-014 1.86858e-014
lhumerus -37.831 -11.688 87.1919
lradius 32.9233
lwrist 7.65225
lhand -12.258 27.3797
lfingers 7.12502
lthumb 13.8084 56.9014
rfemur -13.0584 -3.80473 20.2942
rtibia 25.7995
rfoot -23.3625 8.30366
rtoes 3.69701
lfemur -46.7153 9.88764 -25.9896
ltibia 47.796
lfoot -12.9411 -3.30728
ltoes -15.1887
33
root 12.5344 17.9221 12.5766 -165.568 -35.5162 176.489
lowerback -6.62546 -0.755369 -1.19887
upperback -1.86948 -0.993045 -0.465624
thorax 1.79819 -0.530867 0.113099
lowerneck -17.1155 0.156158 0.192453
upperneck 25.4118 -0.622835 0.384509
head 11.0545 -0.471227 -0.0327434
rclavicle -3.78436e-014 2.78299e-015
rhumerus -31.3076 15.2205 -95.7462
rradius 26.8208
rwrist 5.18822
rhand -23.5434 12.2835
rfingers 7.12502
rthumb 2.91828 -17.6763
lclavicle -3.78436e-014 2.78299e-015
lhumerus -37.8109 -11.7041 87.224
lradius 32.84
lwrist 7.62502
lhand -12.3673 27.2428
lfingers 7.12502
lthumb 13.703 56.7717
rfemur -12.7158 -3.9593 20.3972
rtibia 25.4145
rfoot -23.2838 8.3988
rtoes 2.90168
lfemur -46.7859 9.87696 -26.115
ltibia 46.5303
lfoot -12.7685 -3.4479
ltoes -15.2605
34
root 12.5047 17.9185 12.5226 -165.632 -35.3361 176.581
lowerback -6.7354 -0.693936 -1.07217
upperback -1.80561 -0.914739 -0.518073
thorax 1.92151 -0.491543 -0.00770688
lowerneck -17.1175 0.21262 0.338715
upperneck 25.4469 -0.56015 0.281571
head 11.0675 -0.442421 -0.0861547
rclavicle -2.20899e-014 -3.10104e-014
rhumerus -31.1624 15.0763 -95.7682
rradius 26.7747
rwrist 5.3397
rhand -23.4884 12.3835
rfingers 7.12502
rthumb 2.97141 -17.5755
lclavicle -2.20899e-014 -3.10104e-014
lhumerus -37.7353 -11.8197 87.1732
lradius 32.8825
lwrist 7.71029
lhand -12.4157 27.1969
lfingers 7.12502
lthumb 13.6564 56.7289
rfemur -12.2434 -3.98353 20.4239
rtibia 25.0142
rfoot -23.1571 8.8569
rtoes 3.85853
lfemur -46.796 9.98 -26.2943
ltibia 45.2397
lfoot -12.6183 -3.55369
ltoes -15.8121
35
root 12.469 17.9184 12.4654 -165.769 -35.1575 176.665
lowerback -6.86798 -0.622112 -0.897164
upperback -1.66846 -0.822044 -0.580689
thorax 2.13254 -0.443695 -0.165489
lowerneck -17.2477 0.245313 0.362024
upperneck 25.4963 -0.526505 0.307776
head 11.1117 -0.420095 -0.0759497
rclavicle 2.8712e-014 1.50082e-014
rhumerus -31.0432 15.1957 -95.8639
rradius 26.8802
rwrist 5.13525
rhand -23.4743 12.0972
rfingers 7.12502
rthumb 2.98506 -17.8616
lclavicle 2.8712e-014 1.50082e-014
lhumerus -37.5612 -11.8336 87.0487
lradius 32.9178
lwrist 7.69734
lhand -12.3158 27.3355
lfingers 7.12502
lthumb 13.7527 56.861
rfemur -11.6338 -4.10834 20.4011
rtibia 24.5954
rfoot -22.9988 9.52359
rtoes 5.25917
lfemur -46.6778 9.99154 -26.4032
ltibia 43.9346
lfoot -12.4349 -3.75112
ltoes -15.4519
36
root 12.4384 17.9201 12.4073 -165.779 -35.0552 176.746
lowerback -6.88638 -0.622267 -0.900129
upperback -1.73411 -0.826211 -0.52719
thorax 2.07599 -0.44663 -0.108843
lowerneck -17.3523 0.314241 0.36027
upperneck 25.7335 -0.421363 0.219679
head 11.2215 -0.389109 -0.0944709
rclavicle -4.6938e-014 -1.11319e-014
rhumerus -31.2214 15.5256 -95.9719
rradius 27.0595
rwrist 4.82384
rhand -23.4513 11.6734
rfingers 7.12502
rthumb 3.00728 -18.2852
lclavicle -4.6938e-014 -1.11319e-014
lhumerus -37.6837 -11.7246 87.077
lradius 32.9909
lwrist 7.74368
lhand -12.1397 27.2717
lfingers 7.12502
lthumb 13.9224 56.7856
rfemur -11.2228 -4.01064 20.4618
rtibia 24.2008
rfoot -22.9661 9.59644
rtoes 5.78746
lfemur -46.7173 9.86892 -26.4903
ltibia 42.6439
lfoot -12.1005 -3.83173
ltoes -15.8546
37
root 12.4072 17.9203 12.3485 -165.738 -34.9112 176.74
lowerback -6.90291 -0.584411 -0.954876
upperback -1.82164 -0.77666 -0.535499
thorax 1.99533 -0.423548 -0.081966
lowerneck -17.4187 0.352447 0.490822
upperneck 25.9727 -0.375616 0.0397137
head 11.3247 -0.384821 -0.177971
rclavicle -8.47817e-014 -5.26779e-015
rhumerus -31.3671 15.5374 -96.0546
rradius 27.1311
rwrist 4.7795
rhand -23.4111 11.6181
rfingers 7.12502
rthumb 3.04611 -18.3399
lclavicle -8.47817e-014 -5.26779e-015
lhumerus -37.8301 -11.825 87.1586
lradius 33.0389
lwrist 7.83526
lhand -12.0874 27.1586
lfingers 7.12502
lthumb 13.9727 56.6691
rfemur -10.7948 -3.67869 20.4582
rtibia 23.7634
rfoot -22.9869 9.38687
rtoes 5.83785
lfemur -46.7594 9.82 -26.688
ltibia 41.3581
lfoot -11.8897 -3.95013
ltoes -17.8562
38
root 12.4055 17.9076 12.3125 -166.122 -34.794 177.454
lowerback -6.44555 -0.509562 -0.588856
upperback -1.9668 -0.712143 -0.321145
thorax 1.5898 -0.389375 -0.0552005
lowerneck -17.4301 0.400654 0.571943
upperneck 26.0979 -0.299282 -0.112955
head 11.3744 -0.365706 -0.237778
rclavicle 8.74777e-014 1.92821e-014
rhumerus -31.3775 15.5216 -96.0575
rradius 27.0927
rwrist 4.84591
rhand -23.4374 11.7119
rfingers 7.12502
rthumb 3.02066 -18.2464
lclavicle 8.74777e-014 1.92821e-014
lhumerus -37.9196 -11.8115 87.234
lradius 33.1204
lwrist 7.87798
lhand -12.1255 27.1328
lfingers 7.12502
lthumb 13.9361 56.6458
rfemur -10.5248 -2.58072 21.2104
rtibia 23.322
rfoot -23.0508 8.44679
rtoes 5.1868
lfemur -46.9837 9.74481 -26.1096
ltibia 40.0544
lfoot -11.7645 -3.92781
ltoes -19.4141
